<?xml version="1.0" standalone="no"?>
<!DOCTYPE svg PUBLIC "-//W3C//DTD SVG 20010904//EN"
 "http://www.w3.org/TR/2001/REC-SVG-20010904/DTD/svg10.dtd">
<svg version="1.0" xmlns="http://www.w3.org/2000/svg"
 width="512.000000pt" height="512.000000pt" viewBox="0 0 512.000000 512.000000"
 preserveAspectRatio="xMidYMid meet">
<metadata>
Created by potrace 1.14, written by Peter Selinger 2001-2017
</metadata>
<g transform="translate(0.000000,512.000000) scale(0.100000,-0.100000)"
fill="#000000" stroke="none">
<path d="M2378 5115 c-1 -1 -39 -5 -82 -9 -44 -4 -82 -9 -85 -11 -4 -2 -34 -7
-66 -10 -117 -14 -472 -111 -499 -136 -6 -5 -16 -9 -23 -9 -15 0 -131 -52
-228 -101 -631 -322 -1103 -899 -1299 -1584 -14 -49 -27 -102 -30 -118 -3 -15
-7 -35 -10 -45 -3 -9 -7 -34 -11 -56 -3 -21 -7 -41 -9 -45 -4 -6 -12 -72 -26
-201 -8 -84 -5 -454 4 -515 4 -22 13 -80 21 -130 50 -304 158 -605 314 -875
43 -74 159 -246 183 -272 7 -7 29 -34 48 -58 101 -131 286 -308 454 -434 226
-169 500 -308 781 -395 123 -38 289 -74 405 -87 30 -3 76 -10 103 -14 48 -7
472 -5 517 4 14 2 45 7 70 10 25 4 92 16 150 27 58 12 115 23 128 25 38 7 320
103 370 125 91 41 245 121 321 166 636 382 1088 1046 1207 1773 38 235 40 573
5 805 -82 539 -335 1035 -728 1430 -77 77 -163 154 -207 185 -12 8 -30 23 -41
33 -73 67 -356 236 -510 303 -44 20 -89 39 -100 44 -86 38 -365 119 -465 134
-19 3 -46 8 -60 11 -14 3 -45 8 -70 11 -25 3 -56 8 -70 10 -27 6 -456 14 -462
9z m1247 -1418 c39 -19 59 -44 74 -86 14 -42 15 -1455 1 -1538 -36 -214 -278
-395 -530 -395 -194 0 -353 85 -435 233 -28 50 -30 62 -30 154 1 89 4 106 30
160 64 133 214 243 383 281 74 16 221 16 265 -1 16 -7 17 18 17 429 0 240 -1
436 -2 436 -3 0 -275 -57 -308 -64 -8 -2 -33 -7 -55 -11 -22 -5 -42 -9 -45
-10 -3 0 -21 -4 -40 -8 -41 -8 -53 -11 -145 -31 -39 -8 -82 -17 -95 -20 -14
-2 -70 -14 -125 -26 -55 -12 -111 -24 -125 -26 -13 -3 -27 -10 -31 -15 -3 -6
-6 -301 -6 -657 0 -635 -2 -693 -24 -760 -62 -191 -289 -335 -524 -334 -303 1
-515 222 -451 472 53 207 262 357 509 365 54 2 114 -1 133 -7 20 -5 39 -7 42
-3 4 3 7 250 7 548 1 576 0 561 49 616 22 24 54 40 96 47 14 2 43 8 65 14 22
5 108 23 190 40 172 36 406 85 615 130 80 18 154 34 165 36 11 2 31 6 45 9 38
8 70 15 124 25 27 6 51 11 52 13 9 9 83 -2 109 -16z"/>
</g>
</svg>
